<?xml version="1.0" encoding="utf-8"?>
<!-- Generator: Adobe Illustrator 25.2.0, SVG Export Plug-In . SVG Version: 6.00 Build 0)  -->
<svg version="1.1" id="Ebene_1" xmlns="http://www.w3.org/2000/svg" xmlns:xlink="http://www.w3.org/1999/xlink" x="0px" y="0px"
	 viewBox="0 0 18 18" style="enable-background:new 0 0 18 18;" xml:space="preserve">
<style type="text/css">
	.st0{fill:none;}
</style>
<g>
	<rect class="st0" width="18" height="18"/>
</g>
<g>
	<path d="M1.9,14.7l1,0.4V8.4l-1.8,4.4C0.8,13.5,1.1,14.4,1.9,14.7z M16.5,12l-3.7-9c-0.2-0.6-0.8-0.9-1.4-0.9c-0.2,0-0.4,0-0.6,0.1
		L5.3,4.5C4.8,4.7,4.4,5.2,4.4,5.8c0,0.2,0,0.4,0.1,0.6l3.7,9C8.5,16,9,16.3,9.6,16.3c0.2,0,0.4,0,0.6-0.1l5.5-2.3
		C16.5,13.6,16.8,12.7,16.5,12z M4.4,14.8c0,0.8,0.7,1.5,1.5,1.5H7l-2.6-6.3V14.8z"/>
</g>
</svg>
